<?xml version="1.0" encoding="UTF-8" standalone="no"?>
<svg
 xmlns:dc="http://purl.org/dc/elements/1.1/"
 xmlns:cc="http://creativecommons.org/ns#"
 xmlns:rdf="http://www.w3.org/1999/02/22-rdf-syntax-ns#"
 xmlns:svg="http://www.w3.org/2000/svg"
 xmlns="http://www.w3.org/2000/svg"
 xmlns:sodipodi="http://sodipodi.sourceforge.net/DTD/sodipodi-0.dtd"
 xmlns:inkscape="http://www.inkscape.org/namespaces/inkscape"
 viewBox="0 0 24.000004 23.921785"
 version="1.1"
 id="svg4"
 sodipodi:docname="dashboard x24 0_4.svg"
 width="24.000004"
 height="23.921785"
 inkscape:export-filename="C:\Users\gillo\Documents\ERM - FOLIO\Icon design\Dashboard\dashboard x14 0_5.png"
 inkscape:export-xdpi="56"
 inkscape:export-ydpi="56"
 inkscape:version="1.0.2 (e86c870, 2021-01-15)">
<metadata
 id="metadata10">
<rdf:RDF>
<cc:Work
 rdf:about="">
<dc:format>image/svg+xml</dc:format>
<dc:type
 rdf:resource="http://purl.org/dc/dcmitype/StillImage" />
<dc:title />
</cc:Work>
</rdf:RDF>
</metadata>
<defs
 id="defs8">
<inkscape:path-effect
 only_selected="false"
 apply_with_weight="true"
 apply_no_weight="true"
 helper_size="0"
 steps="2"
 weight="33"
 lpeversion="1"
 is_visible="true"
 id="path-effect881"
 effect="bspline" />
<inkscape:path-effect
 only_selected="false"
 apply_with_weight="true"
 apply_no_weight="true"
 helper_size="0"
 steps="2"
 weight="33"
 lpeversion="1"
 is_visible="true"
 id="path-effect877"
 effect="bspline" />
<inkscape:path-effect
 only_selected="false"
 apply_with_weight="true"
 apply_no_weight="true"
 helper_size="0"
 steps="2"
 weight="33"
 lpeversion="1"
 is_visible="true"
 id="path-effect873"
 effect="bspline" />
<inkscape:path-effect
 only_selected="false"
 apply_with_weight="true"
 apply_no_weight="true"
 helper_size="0"
 steps="2"
 weight="33"
 lpeversion="1"
 is_visible="true"
 id="path-effect867"
 effect="bspline" />
<inkscape:path-effect
 only_selected="false"
 apply_with_weight="true"
 apply_no_weight="true"
 helper_size="0"
 steps="2"
 weight="33"
 lpeversion="1"
 is_visible="true"
 id="path-effect862"
 effect="bspline" />
<clipPath
 clipPathUnits="userSpaceOnUse"
 id="clipPath936">
<path
 inkscape:export-ydpi="46.257568"
 inkscape:export-xdpi="46.257568"
 inkscape:export-filename="C:\Users\gillo\Documents\ERM - FOLIO\Icon design\Agreement icon\Version 1\folder purple-white24.png"
 inkscape:connector-curvature="0"
 id="path938"
 d="m 9.7858527,47.792081 c -4.1992326,-0.71127 -7.7801843,-3.78628 -9.0980256,-7.81259 -0.62245022,-1.90172 -0.59157437,-1.07049 -0.59157437,-15.92622 0,-12.75526 0.008568,-13.46944 0.17201059,-14.33714 C 0.74556409,7.182161 1.7373564,5.309451 3.5600238,3.500591 5.2592757,1.814211 6.9216329,0.90561102 9.425738,0.29456102 c 0.586022,-0.14301 1.775375,-0.15906 14.039961,-0.18946 9.290873,-0.023 13.665395,-0.003 14.266179,0.0664 5.009525,0.57586 8.924468,4.14978998 10.080825,9.20274998 l 0.203629,0.8898 0.03257,13.05868 c 0.03298,13.22201 0.01297,14.26072 -0.300472,15.60521 -0.617666,2.64938 -2.168338,5.03364 -4.328906,6.656 -1.346327,1.01094 -2.611044,1.60841 -4.450415,2.10243 l -0.731724,0.19652 -13.857029,0.0171 c -11.362101,0.014 -13.98981,-0.005 -14.5945023,-0.10786 z"
 style="fill:none;fill-opacity:1;stroke:#000000;stroke-width:2;stroke-miterlimit:4;stroke-dasharray:none;stroke-opacity:0.07843137" />
</clipPath>
</defs>
<sodipodi:namedview
 pagecolor="#ffffff"
 bordercolor="#666666"
 borderopacity="1"
 objecttolerance="10"
 gridtolerance="10"
 guidetolerance="10"
 inkscape:pageopacity="0"
 inkscape:pageshadow="2"
 inkscape:window-width="1920"
 inkscape:window-height="1137"
 id="namedview6"
 showgrid="true"
 inkscape:snap-bbox="true"
 inkscape:snap-global="false"
 showguides="true"
 inkscape:zoom="39"
 inkscape:cx="12"
 inkscape:cy="12"
 inkscape:window-x="-8"
 inkscape:window-y="-8"
 inkscape:window-maximized="1"
 inkscape:current-layer="g8915"
 inkscape:document-rotation="0">
<inkscape:grid
 id="grid915"
 type="xygrid" />
</sodipodi:namedview>
<g
 style="display:inline"
 inkscape:groupmode="layer"
 id="g8915"
 inkscape:label="Background - purple - backup"
 transform="translate(-12.078222,-12.039146)">
<path
 style="fill:#ffffff;fill-opacity:1;stroke:none;stroke-width:0.95;stroke-miterlimit:4;stroke-dasharray:none;stroke-opacity:0.08"
 d="m 16.926739,35.904871 c -2.101173,-0.355899 -3.892976,-1.894544 -4.552385,-3.909191 -0.311456,-0.951565 -0.296006,-0.535642 -0.296006,-7.969014 0,-6.382358 0.0043,-6.739713 0.08607,-7.173884 0.238827,-1.267925 0.735091,-2.204974 1.6471,-3.110074 0.850256,-0.843815 1.682051,-1.298452 2.935031,-1.604204 0.293229,-0.07156 0.888346,-0.07959 7.025185,-0.0948 4.648881,-0.01151 6.837763,-0.0015 7.138378,0.03322 2.506619,0.288143 4.465542,2.076433 5.044149,4.604786 l 0.10189,0.44523 0.0163,6.53418 c 0.0165,6.615907 0.0065,7.135647 -0.150347,7.80839 -0.309062,1.325672 -1.084973,2.518686 -2.166058,3.330467 -0.673662,0.505845 -1.30649,0.804801 -2.226857,1.051995 l -0.366133,0.09833 -6.933651,0.0086 c -5.685262,0.007 -7.000091,-0.0025 -7.302661,-0.05397 z"
 id="path8913"
 inkscape:connector-curvature="0"
 inkscape:export-filename="C:\Users\gillo\Documents\ERM - FOLIO\Icon design\Agreement icon\Version 1\folder purple-white24.png"
 inkscape:export-xdpi="46.257568"
 inkscape:export-ydpi="46.257568" />
</g>
<g
 inkscape:label="Widgets"
 id="layer7"
 inkscape:groupmode="layer"
 style="display:inline">
<rect
 style="fill:#778788;fill-opacity:0.47;stroke:#fdb817;stroke-width:2.01;stroke-linecap:round;stroke-linejoin:round;stroke-miterlimit:4;stroke-dasharray:none;stroke-opacity:1"
 id="rect934-9"
 width="2"
 height="2"
 x="6"
 y="6" />
<rect
 y="6"
 x="11"
 height="2"
 width="2"
 id="rect934-9-3"
 style="fill:#ffffff;fill-opacity:1;stroke:#f79522;stroke-width:2.01;stroke-linecap:round;stroke-linejoin:round;stroke-miterlimit:4;stroke-dasharray:none;stroke-opacity:1" />
<rect
 style="fill:#ffffff;fill-opacity:1;stroke:#ef1d3d;stroke-width:2.01;stroke-linecap:round;stroke-linejoin:round;stroke-miterlimit:4;stroke-dasharray:none;stroke-opacity:1"
 id="rect934-9-3-4"
 width="2"
 height="2"
 x="16"
 y="6" />
<rect
 y="11"
 x="6"
 height="2"
 width="2"
 id="rect934-9-4"
 style="fill:#ffffff;fill-opacity:1;stroke:#a42590;stroke-width:2.01;stroke-linecap:round;stroke-linejoin:round;stroke-miterlimit:4;stroke-dasharray:none;stroke-opacity:1" />
<rect
 style="fill:#ffffff;fill-opacity:1;stroke:#5e3192;stroke-width:2.01;stroke-linecap:round;stroke-linejoin:round;stroke-miterlimit:4;stroke-dasharray:none;stroke-opacity:1"
 id="rect934-9-3-5"
 width="2"
 height="2"
 x="11"
 y="11" />
<rect
 y="11"
 x="16"
 height="2"
 width="2"
 id="rect934-9-3-4-4"
 style="fill:#ffffff;fill-opacity:1;stroke:#095baa;stroke-width:2.01;stroke-linecap:round;stroke-linejoin:round;stroke-miterlimit:4;stroke-dasharray:none;stroke-opacity:1" />
<rect
 style="fill:#ffffff;fill-opacity:1;stroke:#0d73bc;stroke-width:2.01;stroke-linecap:round;stroke-linejoin:round;stroke-miterlimit:4;stroke-dasharray:none;stroke-opacity:1"
 id="rect934-9-4-8"
 width="2"
 height="2"
 x="6"
 y="16" />
<rect
 y="16"
 x="11"
 height="2"
 width="2"
 id="rect934-9-3-5-3"
 style="fill:#ffffff;fill-opacity:1;stroke:#2ab14a;stroke-width:2.01;stroke-linecap:round;stroke-linejoin:round;stroke-miterlimit:4;stroke-dasharray:none;stroke-opacity:1" />
<rect
 style="fill:#1a1a1a;fill-opacity:1;stroke:#a6ce3a;stroke-width:2.01;stroke-linecap:round;stroke-linejoin:round;stroke-miterlimit:4;stroke-dasharray:none;stroke-opacity:1"
 id="rect934-9-3-4-4-6"
 width="2"
 height="2"
 x="16"
 y="16" />
</g>
<g
 style="display:none"
 inkscape:label="Circle"
 id="layer4"
 inkscape:groupmode="layer">
<circle
 r="4.7"
 style="display:inline;opacity:1;fill:#ffffff;fill-opacity:1;stroke:#ffffff;stroke-width:2.59;stroke-linecap:round;stroke-linejoin:round;stroke-miterlimit:4;stroke-dasharray:none"
 id="path858"
 cx="12"
 cy="12" />
</g>
<g
 style="display:none"
 inkscape:groupmode="layer"
 id="layer5"
 inkscape:label="Rectangle">
<path
 d=""
 r="1.5"
 cy="12"
 cx="12"
 style="fill:#000000;stroke:none"
 id="path869" />
<path
 id="path883"
 d="m 12,14 c 4,-4 4,-4 4,-4"
 style="fill:#ffcc00;stroke:#000000;stroke-width:2;stroke-linecap:round;stroke-linejoin:miter;stroke-miterlimit:4;stroke-dasharray:none;stroke-opacity:1" />
</g>
<g
 style="display:none"
 inkscape:label="Diamond"
 id="layer2"
 inkscape:groupmode="layer">
<rect
 transform="matrix(0.71,-0.7,0.71,0.7,0,0)"
 style="display:inline;opacity:0.4;fill:#bdbdbd;fill-opacity:0;stroke:#ffffff;stroke-width:1.78059;stroke-linecap:round;stroke-miterlimit:4;stroke-dasharray:none;stroke-opacity:1"
 id="rect893-0"
 width="14"
 height="14"
 x="-6.9"
 y="10" />
</g>
<g
 transform="translate(-12,-12)"
 inkscape:label="Background - purple - inner border"
 id="g932"
 inkscape:groupmode="layer"
 style="display:inline">
<path
 style="fill:none;fill-opacity:1;stroke:#000000;stroke-width:4;stroke-miterlimit:4;stroke-dasharray:none;stroke-opacity:0.0784314"
 d="M 9.8,48 C 5.6,47 2,44 0.69,40 0.07,38 0.1,39 0.1,24 0.1,11 0.1,11 0.27,9.7 0.75,7.2 1.7,5.3 3.6,3.5 5.3,1.8 6.9,0.91 9.4,0.29 10,0.15 11,0.14 23,0.11 33,0.08 37,0.1 38,0.17 43,0.75 47,4.3 48,9.4 V 10 23 c 0,14 0,15 0,16 -1,3 -2,5 -5,7 -1,1 -2,1 -4,2 H 38 24 C 13,48 10,48 9.8,48 Z"
 id="path934"
 inkscape:connector-curvature="0"
 inkscape:export-filename="C:\Users\gillo\Documents\ERM - FOLIO\Icon design\Agreement icon\Version 1\folder purple-white24.png"
 inkscape:export-xdpi="46.257568"
 inkscape:export-ydpi="46.257568"
 clip-path="url(#clipPath936)"
 transform="matrix(0.5,0,0,0.5,12,12)" />
</g>
<rect
 style="fill:none;stroke:none;stroke-width:0.13660119;stroke-miterlimit:4;stroke-dasharray:none;stroke-opacity:0.63529412"
 id="rect8531"
 width="6.293129"
 height="11.902223"
 x="4.0561771"
 y="5.799746"
 ry="3.1465645" />
<g
 style="display:none"
 inkscape:label="C"
 id="layer1"
 inkscape:groupmode="layer">
<text
 id="text979"
 y="18"
 x="5.8"
 style="font-style:normal;font-variant:normal;font-weight:normal;font-stretch:normal;font-size:17px;line-height:1.25;font-family:'Berlin Sans FB Demi';-inkscape-font-specification:'Berlin Sans FB Demi';letter-spacing:0px;word-spacing:0px;fill:#ffffff;fill-opacity:1;stroke:none"
 xml:space="preserve"><tspan
 y="18"
 x="5.8"
 id="tspan977"
 sodipodi:role="line">C</tspan></text>
</g>
<g
 style="display:none"
 inkscape:label="C 1"
 id="layer3"
 inkscape:groupmode="layer">
<path
 sodipodi:nodetypes="cccc"
 id="path917"
 d="M 15,8 H 9.3 v 8 H 15"
 style="fill:none;stroke:#ffffff;stroke-width:2.6;stroke-linecap:round;stroke-linejoin:round;stroke-miterlimit:4;stroke-dasharray:none;stroke-opacity:1" />
</g>
</svg>
